# xmcd CD database file
#
# Track frame offsets:
#	150
#	12923
#	27448
#	40134
#	54479
#	67356
#	83839
#
# Disc length: 1297 seconds
#
# Revision: 0
# Processed by: cddbd v1.5.2PL0 Copyright (c) Steve Scherf et al.
# Submitted via: CDex 1.73
#
DISCID=59050f07
DTITLE=Bo Porter - Try it, you'll like it
DYEAR=2013
DGENRE=Country
TTITLE0=Ain't I Been Good To You Baby
TTITLE1=Saddle Up And Ride
TTITLE2=Drinkin' Money
TTITLE3=She Likes Living In Texas
TTITLE4=It Ain't Like My Baby
TTITLE5=Mama Came To Texas
TTITLE6=I Was Born Like This
EXTD=YEAR: 2013
EXTT0=
EXTT1=
EXTT2=
EXTT3=
EXTT4=
EXTT5=
EXTT6=
PLAYORDER=
